<?xml version="1.0" standalone="no"?>
<svg viewBox="0 0 200 200" xmlns="http://www.w3.org/2000/svg">
  <path fill="#FF0066" d="M39.2,-61.8C45,-57.3,39.9,-36.6,45.1,-21.6C50.3,-6.7,65.8,2.5,68,12C70.1,21.5,58.8,31.3,49,42.3C39.3,53.3,31,65.5,21.8,63C12.6,60.4,2.5,43.2,-5.1,33.6C-12.6,23.9,-17.6,21.7,-21.8,18.1C-25.9,14.6,-29.3,9.6,-40.4,-0.4C-51.4,-10.4,-70.1,-25.4,-69.3,-33.5C-68.5,-41.5,-48.2,-42.5,-33.4,-42.9C-18.6,-43.3,-9.3,-43.2,3.7,-49C16.7,-54.7,33.4,-66.4,39.2,-61.8Z" transform="translate(100 100)" />
</svg>
