<?xml version="1.0" standalone="no"?>
<svg viewBox="0 0 200 200" xmlns="http://www.w3.org/2000/svg">
  <path fill="#FF0066" d="M38.7,-63.5C49.2,-53.4,56.2,-41.1,62.1,-28.3C68.1,-15.5,73,-2.1,73.8,12.4C74.5,27,71.1,42.9,61.6,52.7C52.1,62.6,36.4,66.5,20.6,72C4.8,77.6,-11.1,84.8,-22.1,79.6C-33.1,74.4,-39.2,56.8,-48.2,43.4C-57.1,30,-69,20.8,-68.5,11.1C-68,1.3,-55.2,-9,-48.5,-21.6C-41.9,-34.2,-41.5,-49,-34.4,-60.7C-27.4,-72.3,-13.7,-80.8,0.2,-81.1C14.1,-81.4,28.2,-73.6,38.7,-63.5Z" transform="translate(100 100)" />
</svg>
