<?xml version="1.0" standalone="no"?>
<svg viewBox="0 0 200 200" xmlns="http://www.w3.org/2000/svg">
  <path fill="#8B72B6" d="M41.7,-63.3C54,-57,63.9,-45.4,68.4,-32.2C72.8,-19.1,71.9,-4.4,66.7,7.4C61.6,19.2,52.3,28.2,43.1,35.3C33.8,42.4,24.6,47.4,14.9,50C5.1,52.5,-5.1,52.5,-19.1,53.7C-33.1,54.8,-50.8,57.1,-64.1,50.6C-77.4,44.1,-86.3,28.9,-80.2,16.6C-74,4.4,-52.7,-5,-40.3,-12.6C-27.8,-20.3,-24.3,-26.3,-19,-35.8C-13.8,-45.3,-6.9,-58.4,3.9,-64.5C14.7,-70.5,29.4,-69.6,41.7,-63.3Z" transform="translate(100 100)" />
</svg>
